<?xml version="1.0" encoding="UTF-8" standalone="no"?>
<svg
   width="1163.476"
   height="635.28033"
   viewBox="0 0 1163.476 635.28033"
   version="1.1"
   id="svg1"
   sodipodi:docname="novodigital-invite-studio-logo.svg"
   inkscape:version="1.3.2 (091e20e, 2023-11-25, custom)"
   xmlns:inkscape="http://www.inkscape.org/namespaces/inkscape"
   xmlns:sodipodi="http://sodipodi.sourceforge.net/DTD/sodipodi-0.dtd"
   xmlns="http://www.w3.org/2000/svg"
   xmlns:svg="http://www.w3.org/2000/svg">
  <sodipodi:namedview
     id="namedview1"
     pagecolor="#ffffff"
     bordercolor="#000000"
     borderopacity="0.25"
     inkscape:showpageshadow="2"
     inkscape:pageopacity="0.0"
     inkscape:pagecheckerboard="0"
     inkscape:deskcolor="#d1d1d1"
     inkscape:zoom="0.38862911"
     inkscape:cx="440.00821"
     inkscape:cy="189.12633"
     inkscape:window-width="1920"
     inkscape:window-height="991"
     inkscape:window-x="-9"
     inkscape:window-y="-9"
     inkscape:window-maximized="1"
     inkscape:current-layer="svg1" />
  <defs
     id="defs1" />
  <path
     style="fill:#000000"
     d="m 336.06528,634.18063 c -1.33909,-0.535 -3.02659,-0.7456 -3.75,-0.468 -0.97281,0.3733 -1.31431,-0.7239 -1.31154,-4.2138 l 0.004,-4.7187 1.85555,3.0428 c 2.76066,4.527 6.35645,6.4572 12.02921,6.4572 4.17011,0 5.29358,-0.4208 7.03518,-2.6349 2.34125,-2.9763 2.7698,-9.0492 0.82258,-11.6566 -0.6875,-0.9206 -4.85,-3.5941 -9.25,-5.9412 -6.50186,-3.4681 -8.35803,-5.0007 -9.91184,-8.1836 -1.73679,-3.5578 -1.78258,-4.2903 -0.5,-8 1.97743,-5.7196 6.24452,-7.7974 15.10816,-7.3571 3.68298,0.183 6.90535,0.5444 7.16082,0.8031 0.25547,0.2587 0.77356,2.2703 1.15132,4.4703 l 0.68682,4 -2.54806,-3.6239 c -2.938,-4.1782 -4.33032,-4.8761 -9.72927,-4.8761 -5.17633,0 -7.91821,2.7099 -7.91821,7.8257 0,4.5926 1.84365,6.5037 10.81373,11.209 7.11293,3.7312 9.84933,6.6524 10.75532,11.4817 1.39643,7.4437 -5.15984,13.5255 -14.46693,13.4202 -3.08117,-0.035 -6.69774,-0.5011 -8.03684,-1.0361 z m 93.854,-0.6505 c 2.0763,-1.6973 2.1323,-2.3527 1.8608,-21.75 l -0.2801,-20 -4,-0.2603 c -4.8116,-0.3132 -8.5153,1.4198 -10.2155,4.7801 -1.1998,2.3711 -1.2556,2.2933 -1.2697,-1.7698 l -0.015,-4.25 h 19 19 l -0.039,4.75 -0.039,4.75 -1.3561,-3.1156 c -1.5282,-3.5109 -5.6043,-5.3844 -11.715,-5.3844 h -3.8507 v 20.4681 20.468 l 2.75,1.4919 c 2.6513,1.4384 2.4859,1.4934 -4.6108,1.532 -7.1567,0.039 -7.3015,-0.01 -5.22,-1.71 z m 92.4148,-0.3137 c -6.4647,-3.2 -7.3341,-6.0255 -7.3341,-23.8374 0,-13.7655 -0.1766,-15.2755 -2,-17.0989 l -2,-2 6.25,0.032 c 5.8054,0.029 6.1077,0.14 4.25,1.5516 -1.8568,1.411 -1.9912,2.6149 -1.8779,16.8152 0.086,10.7497 0.5316,16.1313 1.5,18.1084 3.2899,6.7166 12.3487,9.3341 19.5641,5.6531 6.3172,-3.2228 7.3138,-6.3905 7.3138,-23.2467 0,-13.2899 -0.1514,-14.4456 -2.1743,-16.5989 l -2.1743,-2.3145 h 5.2851 c 5.1625,0 5.2366,0.041 3.1963,1.75 -1.9217,1.6101 -2.1184,3.0005 -2.4595,17.3873 -0.4185,17.648 -1.5945,21.1739 -8.0902,24.2562 -4.8543,2.3036 -14.1161,2.0836 -19.249,-0.4572 z m 90.0109,0.235 c 1.4167,-1.5655 1.655,-4.5414 1.655,-20.6713 0,-16.5371 -0.2141,-19.0806 -1.75,-20.7887 -1.7269,-1.9205 -1.5716,-1.9406 11.75,-1.5216 14.4794,0.4554 18.9041,1.7591 23.633,6.963 10.0472,11.0566 6.9256,29.0556 -6.0623,34.9545 -4.9608,2.2531 -8.2526,2.4372 -4.0707,0.2276 7.5904,-4.0105 10.6765,-9.6411 10.6765,-19.4795 0,-8.3502 -3.0512,-14.4204 -9.3405,-18.5825 -3.4861,-2.307 -5.123,-2.6887 -11.6947,-2.7276 l -7.6413,-0.045 -0.2701,20.0703 c -0.269,19.9852 -0.2606,20.0751 2,21.2288 1.2485,0.6372 4.5201,1.312 7.2701,1.4995 2.75,0.1875 -0.1322,0.422 -6.405,0.5212 -10.991,0.1737 -11.3449,0.1138 -9.75,-1.6485 z m 101.4325,0.272 c 2.1637,-1.5155 2.2225,-2.0582 2.2225,-20.5 0,-17.6099 -0.1408,-19.084 -2,-20.9433 l -2,-2 6.25,0.032 c 5.2675,0.027 5.9874,0.2316 4.5793,1.3023 -1.4451,1.0989 -1.7067,3.9475 -1.9368,21.095 -0.2472,18.4142 -0.1326,19.9222 1.6118,21.1977 1.664,1.2167 1.1472,1.3732 -4.5357,1.3732 -6.09,0 -6.3015,-0.079 -4.1911,-1.5567 z m 81.7225,-0.3392 c -8.1277,-3.7629 -12.5,-11.0786 -12.5,-20.9147 0,-4.2196 0.6554,-7.1165 2.3262,-10.2821 2.4,-4.5472 9.6301,-10.9073 12.3994,-10.9073 0.9021,0 0.1475,0.9588 -1.7737,2.2534 -4.6436,3.1294 -7.0496,7.732 -7.6808,14.6934 -0.973,10.7307 2.9237,19.9637 10.0306,23.7669 1.7591,0.9413 5.6733,1.9997 8.6983,2.3519 l 5.5,0.6404 -6.5,0.125 c -4.4408,0.086 -7.7672,-0.4616 -10.5,-1.7269 z m 20.9013,-2.2833 c 7.7077,-6.3533 9.9131,-18.3087 5.2318,-28.3616 -3.8424,-8.2515 -7.7079,-10.6973 -18.6331,-11.7892 -2.2958,-0.2295 -1.6077,-0.403 2,-0.5043 7.5842,-0.213 12.4625,1.3539 17.0124,5.4645 5.1873,4.6864 7.3367,10.5458 6.8238,18.6018 -0.4874,7.6542 -4.2679,14.0327 -10.3633,17.4849 -5.6573,3.2042 -6.5681,2.8102 -2.0716,-0.8961 z m -569.17877,-14.3775 c -4.05042,-2.837 -1.66751,-9.4433 3.40623,-9.4433 2.8802,0 4.37126,1.9528 4.37126,5.7248 0,2.6488 -0.52153,3.523 -2.5651,4.3 -3.15132,1.1981 -2.58082,1.2618 -5.21239,-0.5815 z m 653.96287,0.8729 c -0.7231,-0.2892 -1.7475,-1.6645 -2.2766,-3.056 -2.0639,-5.4284 4.5723,-9.701 8.4362,-5.4314 3.9747,4.3919 -0.6091,10.708 -6.1596,8.4874 z M 0,612.28013 c 0,-0.6599 33.5,-1 98.5,-1 65,0 98.5,0.3401 98.5,1 0,0.6599 -33.5,1 -98.5,1 -65,0 -98.5,-0.3401 -98.5,-1 z m 956.99998,0 c 0,-0.6599 33.5,-1 98.50002,-1 65,0 98.5,0.3401 98.5,1 0,0.6599 -33.5,1 -98.5,1 -65.00002,0 -98.50002,-0.3401 -98.50002,-1 z M 329,478.55856 c -24.79418,-31.8638 -32.22906,-41.4398 -51.33433,-66.1178 -23.6468,-30.5442 -46.92127,-60.222 -76.97126,-98.1477 L 180.5,288.80596 l -0.28118,15.4871 c -0.15464,8.5179 -0.15464,49.9121 0,91.9871 0.25012,68.0493 0.46026,76.8866 1.9023,80 2.10219,4.5386 5.73713,7.831 10.53407,9.5414 3.52332,1.2562 2.42335,1.3679 -13.15519,1.3358 -9.35,-0.019 -16.325,-0.2551 -15.5,-0.524 6.25075,-2.0374 8.94388,-3.9015 11.11768,-7.6954 l 2.38232,-4.1578 v -94.0437 c 0,-87.4551 -0.12116,-94.2287 -1.72943,-96.6835 -2.6832,-4.0954 -8.1134,-7.7537 -12.90817,-8.6962 -3.24956,-0.6387 -0.35758,-0.8854 11.33671,-0.967 l 15.69911,-0.1096 2.79328,3.75 c 1.5363,2.0625 11.81111,15.225 22.83292,29.25 23.45336,29.8439 41.39146,52.86 65.46715,84 9.56766,12.375 22.3711,28.8719 28.45209,36.6599 6.08099,7.7879 14.18995,18.2504 18.01991,23.25 3.82996,4.9995 7.31746,9.0901 7.75,9.0901 0.43254,0 0.78643,-37.9733 0.78643,-84.3852 0,-75.3216 -0.17534,-84.928 -1.63247,-89.4398 -1.98669,-6.1514 -6.01838,-10.2308 -11.08023,-11.2114 -2.23588,-0.4331 3.17656,-0.7396 13.2127,-0.7481 12.57271,-0.011 15.97134,0.2264 13.05012,0.9109 -4.72796,1.1077 -7.14629,3.1319 -9.38267,7.8533 -1.51642,3.2014 -1.69219,12.6459 -1.94058,104.2703 -0.15021,55.4125 -0.60021,100.7313 -1,100.7084 -0.39978,-0.023 -4.10187,-4.3789 -8.22687,-9.68 z m 153.72168,4.0045 c -1.4196,-3.1806 -3.5427,-8.2579 -4.718,-11.2829 -2.3531,-6.0564 -17.6959,-42.2774 -27.5332,-65 -3.4527,-7.975 -11.7448,-27.325 -18.4269,-43 -27.77619,-65.1574 -32.06938,-74.9238 -34.75973,-79.0741 -2.96427,-4.5729 -7.22713,-7.7098 -12.00693,-8.8355 -2.52439,-0.5945 4.51377,-0.8813 21.22308,-0.8648 13.74998,0.014 23.14588,0.3284 20.87968,0.6996 -5.8176,0.9528 -9.0251,3.348 -9.7326,7.2679 -1.109,6.1439 -2.2575,3.1754 35.906,92.8069 12.0376,28.2717 17.071,40.1531 20.9701,49.5 1.8355,4.4 4.9705,11.825 6.9665,16.5 1.9961,4.675 5.2247,12.4375 7.1748,17.25 1.95,4.8125 3.901,8.75 4.3356,8.75 0.4346,0 5.534,-11.1375 11.3321,-24.75 5.7981,-13.6125 16.0061,-37.575 22.6845,-53.25 42.0308,-98.6521 42.982,-101.2342 39.6606,-107.6572 -2.1261,-4.1114 -3.76,-5.2723 -8.8207,-6.2672 -3.0338,-0.5964 1.7161,-0.8692 15.6434,-0.8985 17.8473,-0.037 19.4963,0.094 15.3206,1.2179 -8.7748,2.3627 -14.6907,8.8543 -21.0562,23.105 -1.474,3.3 -6.9345,16.125 -12.1343,28.5 -45.8248,109.0573 -67.8782,160.2494 -69.2289,160.6996 -0.6042,0.2014 -2.26,-2.2361 -3.6795,-5.4167 z m -420.4622,3.2878 c 4.67723,-1.669 6.41481,-3.0901 8.55646,-6.9979 1.54537,-2.8197 1.68406,-10.8967 1.68406,-98.0728 v -95 l -2.23571,-4.1821 c -2.57092,-4.8092 -3.39219,-5.4474 -8.23032,-6.3954 -1.94369,-0.3809 6.59103,-0.6925 18.96603,-0.6925 12.375,0 20.925,0.3149 19,0.6999 -5.3273,1.0652 -7.56002,2.6401 -9.61965,6.7855 -1.80071,3.6243 -1.88035,7.8081 -1.88035,98.7846 0,93.538 0.0311,95.0539 2.02288,98.5 1.19797,2.0727 3.83305,4.4175 6.46189,5.75 l 4.43901,2.25 -21.46189,-0.044 c -19.18428,-0.039 -21.06292,-0.1863 -17.70241,-1.3854 z m 573.4236,0.2017 c 5.0272,-1.6162 8.1772,-5.6492 9.3445,-11.964 0.676,-3.6566 0.9361,-37.1612 0.7527,-96.9481 -0.2489,-81.1093 -0.4593,-91.753 -1.8754,-94.8603 -1.9642,-4.3099 -3.9599,-6.0279 -8.1611,-7.0252 -1.84,-0.4368 6.0608,-0.7701 18.2562,-0.7701 11.825,0 20.15,0.3258 18.5,0.724 -4.978,1.2014 -7.1463,2.8149 -9.1197,6.7867 -1.7918,3.6064 -1.8937,8.0213 -2.1653,93.7846 -0.1796,56.6821 0.086,92.3946 0.7177,96.4683 1.2184,7.8589 3.3965,11.0007 9.1704,13.2273 4.3461,1.6761 4.1486,1.6951 -17.1031,1.6479 -16.1234,-0.036 -20.704,-0.3036 -18.3169,-1.0711 z m 154.8169,-0.2753 c 5.2862,-1.8702 8.072,-5.2741 9.4055,-11.4923 1.4709,-6.8582 1.525,-188.9146 0.058,-194.1973 -0.5641,-2.0309 -1.799,-3.9315 -2.7444,-4.2236 -0.9454,-0.2922 -11.3939,-0.1611 -23.2189,0.2912 -18.5238,0.7086 -22.2893,1.1277 -27.2016,3.0274 -10.0428,3.8838 -19.1099,13.8106 -21.7439,23.8053 -0.6098,2.3143 -1.4824,4.4386 -1.939,4.7208 -0.4565,0.2822 0.6807,-6.7739 2.5272,-15.6801 1.8465,-8.9063 3.3573,-16.5431 3.3573,-16.9708 0,-0.4278 36.5625,-0.7766 81.25,-0.7754 h 81.25 l 3.3748,17.0396 c 1.8561,9.3717 3.1476,17.2667 2.87,17.5443 -0.2776,0.2776 -0.82,-1.176 -1.2054,-3.2301 -1.7817,-9.4971 -9.5232,-19.7587 -18.2744,-24.2233 -9.3059,-4.7474 -14.5006,-5.486 -37.265,-5.2977 -20.6125,0.1704 -21.5732,0.2658 -23.2736,2.3101 -1.6757,2.0146 -1.7584,7.545 -1.5,100.2424 0.2283,81.8701 0.506,98.563 1.6777,100.8461 1.5332,2.9873 4.9691,5.5838 9.0095,6.8083 1.4418,0.4369 -6.9284,0.8024 -18.9136,0.8258 -19.7263,0.039 -21.17,-0.075 -17.5,-1.3731 z m 158,-0.2909 c 4.2451,-1.4486 5.3397,-2.3798 7.25,-6.1681 l 2.25,-4.4619 -0.01,-93.5381 c 0,-58.8285 -0.374,-94.8644 -0.9985,-97.1124 -1.2264,-4.4149 -4.8082,-7.9014 -9.1806,-8.9363 -1.8234,-0.4316 27.6096,-0.8307 65.40682,-0.887 l 68.722,-0.1024 1.528,5.5 c 0.8403,3.025 2.2591,8.0875 3.1527,11.25 2.1384,7.5677 4.3039,16.4973 4.3044,17.75 2e-4,0.55 -1.4463,-1.7633 -3.2144,-5.1408 -7.255,-13.8582 -18.2585,-21.8425 -35.4784,-25.7437 -5.9446,-1.3468 -13.4738,-1.6555 -41.4626,-1.7 -31.53182,-0.05 -34.29942,0.083 -35.48642,1.7062 -1.003,1.3777 -1.283,12.1781 -1.283,49.6661 v 47.9054 l 30.75002,-0.4078 c 28.7268,-0.3809 31.1153,-0.5516 36.3015,-2.5941 6.9973,-2.7559 11.694,-7.5619 14.0467,-14.3739 l 1.8365,-5.3174 -0.068,24 c -0.046,16.2655 -0.3537,22.7865 -0.955,20.2345 -1.473,-6.2523 -4.7411,-11.5937 -8.6817,-14.1894 -7.3073,-4.8136 -13.1696,-5.5451 -44.4401,-5.5451 h -28.78992 v 50.2775 c 0,55.7521 -0.2687,53.4588 6.5986,56.3281 4.7936,2.003 58.09622,1.9562 71.48882,-0.063 18.6713,-2.8146 33.0402,-12.2346 39.892,-26.1527 1.768,-3.5913 3.4106,-6.3336 3.6503,-6.0939 0.3952,0.3952 -2.3991,10.8968 -7.7041,28.9537 l -1.9832,6.75 -71.2212,-0.044 c -68.45132,-0.042 -71.02672,-0.1102 -66.22122,-1.75 z M 404.5,219.25686 c -29.0424,-2.9242 -56.3691,-17.3706 -73.78669,-39.008 -24.45708,-30.3822 -30.55156,-76.6521 -15.01151,-113.968704 11.511,-27.6416 32.89201,-49.0668 59.13442,-59.2568005 13.32646,-5.1746 24.01119,-7.04299998 40.16376,-7.02319998405 C 438.29548,0.02915552 460.29018,4.6409555 482.02078,14.054256 l 4.5207,1.9583 2.2511,16.7786 c 2.2689,16.9118 2.3249,21.3547 0.168,13.3399 -1.8389,-6.8327 -5.8121,-12.7707 -13.6741,-20.4358 -17.7639,-17.3189005 -44.7668,-26.16350048 -71.55817,-23.4383005 -14.47759,1.4726 -20.59702,3.1962 -32.58091,9.1766005 -21.86349,10.9107 -36.30036,30.9145 -44.27439,61.3466 -2.12425,8.107 -2.35879,11.1332 -2.36388,30.500004 -0.004,17.0199 0.37335,23.2712 1.81312,30 8.27747,38.6849 30.52729,68.0432 59.82947,78.9442 16.08449,5.9838 36.16166,7.1967 53.61326,3.239 15.327,-3.4758 31.0338,-11.9984 38.735,-21.0179 l 3,-3.5135 v -29.5759 c 0,-28.0161 -0.1081,-29.76 -2.0502,-33.066 -1.4052,-2.392 -3.4503,-4.0267 -6.5,-5.1956 -4.4272,-1.6969 -4.3457,-1.7056 16.0502,-1.7119 19.971,-0.01 20.412,0.038 17.0885,1.6956 -1.8764,0.9361 -4.3514,2.9716 -5.5,4.5234 -1.9934,2.693 -2.1017,4.2022 -2.3796,33.1682 l -0.2912,30.3468 -10.85,7.0748 c -11.5206,7.5121 -19.0598,11.2396 -31.2252,15.4386 -13.8889,4.7938 -35.7841,7.1934 -51.34248,5.6269 z M 2.35745,215.28796 c 1.5716,-0.4908 3.75517,-1.7047 4.85238,-2.6977 4.96822,-4.4962 4.79028,-0.6683 4.78862,-103.0104 C 11.99645,2.4984555 12.41726,8.7833555 5,4.9903555 c -3.40319,-1.7404 -2.26907,-1.7794 41,-1.4115 40.45764,0.344 45.3288,0.5653 53.62378,2.436 13.764,3.1039 23.85915,6.8510005 34.37622,12.7597005 24.81945,13.944 41.69979,36.1783 48.70904,64.1583 2.4097,9.6192 2.7169,12.7154 2.71343,27.347304 -0.003,14.6856 -0.29827,17.6174 -2.6807,26.6615 -4.8666,18.4745 -12.54158,32.5676 -25.00254,45.9107 -14.76139,15.8063 -28.59301,23.8806 -51.73923,30.2032 l -9.5,2.595 -48.5,0.2648 c -29.4812,0.161 -47.37948,-0.085 -45.64255,-0.6274 z m 93.49162,-2.9308 c 30.0996,-5.8348 53.04573,-24.9592 64.76811,-53.9809 1.30258,-3.2249 3.59217,-10.3033 5.08797,-15.7298 2.51627,-9.1285 2.72015,-11.2872 2.72632,-28.8663 0.006,-16.628604 -0.28783,-20.185704 -2.35292,-28.500004 -9.4879,-38.1994 -31.1091,-63.6236 -63.46845,-74.6321 C 89.14532,6.0673555 81.2257,5.1573555 55.52018,5.2369555 c -20.05262,0.062 -24.22877,0.3232 -25.5,1.5943 -1.33593,1.3357 -1.55243,13.4239005 -1.78624,99.7344045 -0.20091,74.1667 0.0253,98.9189 0.92381,101.0912 0.75401,1.823 2.68296,3.5549 5.26605,4.728 6.11064,2.7754 47.06065,2.7569 61.42527,-0.028 z M 230,215.09986 c 4.61044,-1.3172 5.95717,-2.5288 8.13652,-7.3197 1.7173,-3.7752 1.82048,-9.2264 1.83594,-97 0.0108,-61.423304 -0.33706,-94.272704 -1.02459,-96.748304 -1.41469,-5.0941005 -4.77739,-8.7434005 -8.96369,-9.7277005 -2.1617,-0.5083 4.6765,-0.8193 18.01582,-0.8193 12.55066,0 20.12,0.3267 18.18467,0.7847 -4.3724,1.0349 -7.95417,4.5214 -9.18061,8.9363005 -1.39624,5.0262 -1.34775,189.296504 0.0511,194.333804 1.12592,4.0542 4.08781,6.5502 9.21986,7.7696 1.81919,0.4322 -6.14692,0.7715 -18.27505,0.7784 -15.98246,0.01 -20.6018,-0.2445 -18,-0.9878 z m 317.87698,0.1783 c 4.4851,-1.059 8.0565,-4.7946 9.1689,-9.5905 1.1779,-5.0781 1.1909,-186.681404 0.014,-191.754104 -1.082,-4.6624005 -4.3882,-8.3888005 -8.5046,-9.5851005 -2.0231,-0.588 3.8699,-0.8893 17.4449,-0.8922 13.0416,0 19.4519,0.3096 17.6193,0.8583 -4.0661,1.2175 -7.4551,4.715 -8.6152,8.8913005 -0.6246,2.2483 -0.995,38.3664 -0.9985,97.356404 -0.01,100.1029 -0.1198,97.6899 4.8154,102.0858 1.1534,1.0274 3.578,2.2188 5.388,2.6477 1.9028,0.4508 -5.778,0.7797 -18.209,0.7797 -12.8463,0 -20.1408,-0.3209 -18.123,-0.7973 z m 133.623,0.073 c 4.8159,-1.1623 7.3587,-2.9101 9.2396,-6.3509 1.6414,-3.0027 1.7786,-9.8658 2.0295,-101.5005 0.1848,-67.476404 -0.061,-98.8975045 -0.7852,-100.2500045 -0.9923,-1.8542 -2.1747,-1.9699 -20.1247,-1.9699 -14.124,0 -20.6487,0.4089 -25.1549,1.5766 -12.5729,3.2580005 -19.0869,8.3093005 -24.226,18.7861005 -3.2859,6.6986 -3.4632,6.8847 -2.8844,3.0283 0.3391,-2.2599 1.6153,-8.7849 2.836,-14.5 l 2.2193,-10.3910005 78.5118,-0.256 78.5119,-0.256 1.6635,9.3135005 c 2.3273,13.0296 2.2214,13.5921 -1.6066,8.5262 -1.7986,-2.3802 -6.139,-6.219 -9.6453,-8.5306 -9.3577,-6.1691005 -15.6268,-7.2971005 -40.5567,-7.2971005 h -20.5773 l -0.9942,2.6149 c -0.6412,1.6865 -0.8987,37.6316005 -0.7252,101.2500045 0.264,96.8503 0.3051,98.684 2.2689,101.3374 1.918,2.5916 4.7099,4.1816 9,5.1256 1.1,0.2421 -7.9,0.4462 -20,0.4537 -12.1,0.01 -20.65,-0.3121 -19,-0.7103 z m 90.0957,-0.4784 c 12.2268,-2.9681 17.0097,-9.3957 29.0899,-39.0929 2.461,-6.05 6.6476,-16.175 9.3035,-22.5 12.7045,-30.2555 15.0679,-36.2758 14.4716,-36.8649 -0.3535,-0.3493 -4.3168,-0.5953 -8.8074,-0.5466 -8.7329,0.095 -16.149,1.9992 -23.588,6.0577 -3.8125,2.08 -4.1861,2.1447 -2.6625,0.4611 4.439,-4.9049 17.7668,-9.1895 29.6739,-9.5393 3.8279,-0.1125 7.3318,-0.6238 7.7865,-1.1363 0.8791,-0.9907 4.4296,-9.5268 25.7605,-61.931704 16.4789,-40.4849005 19.476,-47.5072005 20.2613,-47.4739005 0.5712,0.024 13.5623,29.2611005 44.6443,100.4739045 6.9616,15.95 13.91,31.7 15.4409,35 1.5308,3.3 4.4557,10.05 6.4996,15 2.044,4.95 4.0564,9.45 4.4719,10 0.4156,0.55 2.1435,4.375 3.8399,8.5 5.3964,13.1225 14.0935,30.9697 16.8583,34.5945 3.2957,4.3209 9.7354,8.1957 15.5069,9.3305 2.8728,0.5648 -4.4883,0.8583 -21.6468,0.8631 -14.7103,0 -24.5604,-0.3336 -22.6847,-0.7775 1.8235,-0.4316 4.4541,-1.8481 5.8459,-3.1477 3.7861,-3.5353 2.8569,-9.5844 -3.7679,-24.5307 -4.8154,-10.8639 -5.8755,-12.4993 -9.8933,-15.2613 -5.4201,-3.726 -10.4412,-7.364 -23,-16.6646 -27.9079,-20.6676 -50.1563,-32.8441 -69.2906,-37.9228 -4.5252,-1.201 -7.1241,-1.4689 -7.7902,-0.8027 -0.5497,0.5497 -3.6382,7.484 -6.8632,15.4094 -3.2249,7.9254 -8.8625,21.6098 -12.5278,30.4098 -15.2492,36.6118 -16.491,41.391 -12.3424,47.5 1.7504,2.5774 3.5548,3.8083 6.8456,4.6695 3.8196,0.9997 1.4911,1.1689 -16.0314,1.165 -18.3706,0 -19.9707,-0.1331 -15.4043,-1.2416 z m 143.583,-79.273 c -7.7082,-17.5009 -21.735,-49.369904 -31.1706,-70.819904 -9.4357,-21.45 -17.4723,-39.3272 -17.8591,-39.7272 -0.3869,-0.4 -2.1093,2.75 -3.8277,7 -1.7183,4.25 -5.8122,14.2522 -9.0976,22.2272 -7.0576,17.1318 -16.2757,39.5884 -20.4245,49.757304 -1.6286,3.9915 -2.786,7.7824 -2.572,8.4242 0.2139,0.6417 3.0628,1.713 6.3308,2.3807 3.2681,0.6676 10.442,2.8974 15.942,4.9551 16.3656,6.1228 30.784,14.949 59.5092,36.4282 8.9305,6.6778 16.4503,11.9283 16.7108,11.6679 0.2604,-0.2605 -5.8332,-14.7925 -13.5413,-32.2935 z m 109.32132,80.008 c 4.6991,-1.034 7.15,-2.5885 9.5,-6.0252 l 2.5,-3.6562 v -95.5732 c 0,-90.723604 -0.093,-95.760604 -1.8362,-99.264704 -1.9865,-3.9938005 -4.9052,-6.3588005 -8.7371,-7.0797005 -1.3347,-0.2511 7.2483,-0.4718 19.0733,-0.4904 12.3516,-0.019 20.0997,0.298 18.209,0.7459 -4.1836,0.9912 -7.0829,3.5776 -8.9855,8.0156005 -1.3041,3.0418 -1.474,16.0589 -1.2983,99.434704 0.1151,54.6395 0.5903,96.6599 1.1039,97.6196 0.4959,0.9268 2.5206,2.4532 4.4991,3.3921 3.208,1.5223 6.8652,1.6636 33.7846,1.3056 27.5604,-0.3666 30.827,-0.5936 37.5395,-2.6086 4.0437,-1.2139 9.2099,-3.1548 11.4805,-4.3132 5.9783,-3.0499 15.7431,-13.3905 18.962,-20.0802 1.5218,-3.1625 2.9443,-5.75 3.1613,-5.75 0.4545,0 -7.0096,28.6955 -8.4486,32.4802 l -0.958,2.5198 -65.7747,-0.116 c -36.1762,-0.064 -64.8748,-0.314 -63.7748,-0.5561 z"
     id="path1" />
</svg>
