<svg xmlns="http://www.w3.org/2000/svg" viewBox="0 0 1200 300" role="img" aria-labelledby="title desc">
  <title id="title">Digital Invite Studio logo</title>
  <desc id="desc">Logotipo vetorial da Digital Invite Studio em estilo serif premium.</desc>
  <g id="digital-invite" shape-rendering="geometricPrecision">
    <path d="M209 121Q209 92 221.0 72.5Q233 53 256.5 44.0Q280 35 303.5 31.5Q327 28 359 28Q476 28 550.0 111.0Q624 194 624 325Q624 462 539.5 545.0Q455 628 345 628Q313 628 297.0 627.5Q281 627 260.5 624.0Q240 621 231.0 614.5Q222 608 215.5 596.5Q209 585 209 567ZM371 -7Q368 -7 289.0 -3.5Q210 0 163 0Q145 0 115.5 -2.5Q86 -5 58 -5Q29 -5 29 6Q29 18 62 24Q100 31 114.5 47.0Q129 63 129 99V549Q129 584 114.5 599.5Q100 615 62 622Q29 628 29 642Q29 653 58.0 653.0Q87 653 115.0 652.0Q143 651 162 651H169Q192 651 260.0 655.0Q328 659 340 659Q533 659 626.0 571.0Q719 483 719 342Q719 198 616.5 95.5Q514 -7 371 -7Z" fill="#332E2B" transform="translate(196.744 112.000) scale(0.092000 -0.092000)"/>
    <path d="M130 550Q130 585 115.5 600.0Q101 615 63 622Q30 628 30 642Q30 653 59 653Q87 653 120.5 651.5Q154 650 176 650Q196 650 226.5 651.5Q257 653 285 653Q314 653 314 642Q314 628 281 622Q242 615 226.0 599.5Q210 584 210 550V98Q210 64 229.5 47.5Q249 31 289 24Q322 18 322 6Q322 -5 293 -5Q265 -5 231.5 -2.5Q198 0 176 0Q152 0 114.0 -2.5Q76 -5 48 -5Q19 -5 19 6Q19 18 52 24Q92 31 111.0 47.5Q130 64 130 98Z" fill="#332E2B" transform="translate(274.112 112.000) scale(0.092000 -0.092000)"/>
    <path d="M621 624Q632 547 632 512Q632 504 627.5 498.0Q623 492 617 492Q603 492 594 519Q583 549 563 572Q549 590 507.5 607.5Q466 625 404 625Q291 625 217.5 535.5Q144 446 144 324Q144 188 222.0 105.5Q300 23 406 23Q491 23 528 60Q558 90 558 137Q558 145 559.0 165.5Q560 186 560 195Q560 219 555 225Q544 240 511.0 248.0Q478 256 457 256Q452 256 444.5 261.0Q437 266 437.0 273.0Q437 280 444.5 285.0Q452 290 457 290Q481 290 518.0 288.0Q555 286 583 286Q600 286 627.0 288.0Q654 290 672 290Q693 290 693 274Q693 268 685.0 262.5Q677 257 672 256Q651 250 642.0 239.0Q633 228 630 207Q625 171 625 132V105Q625 101 631 89Q633 86 638.5 80.5Q644 75 644 72Q644 55 630 53Q626 52 591.0 35.0Q556 18 502.0 2.0Q448 -14 392 -14Q251 -14 148.0 80.0Q45 174 45 311Q45 458 153.5 560.5Q262 663 413 663Q455 663 537.5 648.5Q620 634 621 624Z" fill="#332E2B" transform="translate(313.392 112.000) scale(0.092000 -0.092000)"/>
    <path d="M130 550Q130 585 115.5 600.0Q101 615 63 622Q30 628 30 642Q30 653 59 653Q87 653 120.5 651.5Q154 650 176 650Q196 650 226.5 651.5Q257 653 285 653Q314 653 314 642Q314 628 281 622Q242 615 226.0 599.5Q210 584 210 550V98Q210 64 229.5 47.5Q249 31 289 24Q322 18 322 6Q322 -5 293 -5Q265 -5 231.5 -2.5Q198 0 176 0Q152 0 114.0 -2.5Q76 -5 48 -5Q19 -5 19 6Q19 18 52 24Q92 31 111.0 47.5Q130 64 130 98Z" fill="#332E2B" transform="translate(388.460 112.000) scale(0.092000 -0.092000)"/>
    <path d="M376 102Q376 38 455 24Q488 18 488 6Q488 -5 459 -5Q431 -5 397.5 -2.5Q364 0 342 0Q318 0 280.0 -2.5Q242 -5 214 -5Q185 -5 185 6Q185 18 218 24Q257 31 276.5 49.0Q296 67 296 102V557Q296 597 278 600Q259 604 204 604H157Q131 604 108.0 594.0Q85 584 75 565Q69 553 56.5 540.0Q44 527 34 527Q27 527 27 540Q27 550 32 560Q54 606 63 671Q66 694 80 694Q88 694 105 662Q116 642 175 642H556Q594 642 614 656Q621 661 631.5 671.0Q642 681 649.5 686.5Q657 692 664.0 692.0Q671 692 671 669Q671 667 670.5 664.0Q670 661 670 660Q654 594 654 561V549Q654 539 649.5 528.0Q645 517 638 517Q627 517 619 558Q611 604 527 604H432Q394 604 385.0 596.5Q376 589 376 558Z" fill="#332E2B" transform="translate(427.740 112.000) scale(0.092000 -0.092000)"/>
    <path d="M333 542 243 302Q241 296 241 294Q241 287 262 287H417Q431 287 431 292Q431 294 429 302L350 541Q344 559 341 559Q339 559 333 542ZM668 -5Q656 -5 605.0 -2.0Q554 1 529 1Q508 1 471.0 0.5Q434 0 424 0Q395 0 395 12Q395 26 428 31Q489 41 489 76Q489 106 451 233Q448 244 424 244H233Q222 244 216 226Q176 110 176 87Q176 66 192.5 51.0Q209 36 234 30Q267 21 267.0 10.0Q267 -1 238 -1Q231 -1 199.5 0.0Q168 1 147 1Q124 1 83.0 -2.0Q42 -5 27 -5Q-2 -5 -2 8Q-2 20 31 31Q91 49 117 108Q213 328 304 578Q311 596 314.0 610.5Q317 625 317.0 630.5Q317 636 318 636Q345 645 354 651Q360 655 364.0 664.0Q368 673 370.5 679.5Q373 686 375.0 686.0Q377 686 385 662Q459 429 563 128Q582 73 605.0 53.5Q628 34 664 28Q697 22 697 5Q697 -5 668 -5Z" fill="#332E2B" transform="translate(497.380 112.000) scale(0.092000 -0.092000)"/>
    <path d="M210 567V96Q210 63 225.0 49.0Q240 35 287 35H433Q439 35 458.0 43.0Q477 51 489 61Q521 89 541 132Q552 162 563 162Q575 162 575 144Q575 143 574 141V139Q551 53 547 12Q545 -5 533 -5Q462 -5 349.0 -2.5Q236 0 190 0L55 -5Q27 -5 27 7Q27 18 49 24Q90 32 110.0 48.0Q130 64 130 96V560Q130 595 119.0 605.0Q108 615 69 622Q36 628 36 642Q36 653 65 653Q93 653 124.5 651.5Q156 650 177 650Q201 650 238.0 651.5Q275 653 303 653Q332 653 332 642Q332 628 299 622Q275 618 263.0 615.0Q251 612 236.5 606.0Q222 600 216.0 590.5Q210 581 210 567Z" fill="#332E2B" transform="translate(569.044 112.000) scale(0.092000 -0.092000)"/>
    <path d="M130 550Q130 585 115.5 600.0Q101 615 63 622Q30 628 30 642Q30 653 59 653Q87 653 120.5 651.5Q154 650 176 650Q196 650 226.5 651.5Q257 653 285 653Q314 653 314 642Q314 628 281 622Q242 615 226.0 599.5Q210 584 210 550V98Q210 64 229.5 47.5Q249 31 289 24Q322 18 322 6Q322 -5 293 -5Q265 -5 231.5 -2.5Q198 0 176 0Q152 0 114.0 -2.5Q76 -5 48 -5Q19 -5 19 6Q19 18 52 24Q92 31 111.0 47.5Q130 64 130 98Z" fill="#332E2B" transform="translate(657.172 112.000) scale(0.092000 -0.092000)"/>
    <path d="M616 650Q638 650 668.5 651.5Q699 653 731 653Q760 653 760 642Q760 628 727 622Q690 615 677.5 604.0Q665 593 664 568Q662 520 662 8Q662 -17 641 -17Q630 -17 606.0 -0.5Q582 16 560 46Q533 83 204 484Q191 500 183 500Q174 500 174 479Q169 231 169 104Q169 36 233 24Q266 18 266 6Q266 -5 237.0 -5.0Q208 -5 183.5 -2.5Q159 0 143.0 0.0Q127 0 104.0 -2.5Q81 -5 52.0 -5.0Q23 -5 23 6Q23 16 56 25Q107 39 114 107Q132 276 132 507Q132 556 107.5 580.0Q83 604 33 620Q2 630 2.0 644.0Q2 658 25 658Q56 657 97.5 655.0Q139 653 179 653Q190 653 203 636Q216 618 390.5 398.5Q565 179 584 156Q601 136 609 136Q618 136 619 157Q621 221 621 477V564Q620 582 600.5 599.0Q581 616 563 619Q530 625 530 639Q530 650 559 650Z" fill="#332E2B" transform="translate(696.452 112.000) scale(0.092000 -0.092000)"/>
    <path d="M649 653Q678 653 678 642Q678 629 645 622Q611 614 585.5 589.5Q560 565 547 535L359 79Q358 77 354.0 64.5Q350 52 345.5 40.0Q341 28 336.0 14.5Q331 1 325.5 -7.0Q320 -15 316 -15Q311 -15 286 56L103 547Q81 606 33 620Q0 630 0 642Q0 653 29 653Q43 653 84.5 651.5Q126 650 151 650Q173 650 209.5 651.0Q246 652 253 652Q282 652 282 641Q282 627 249 621Q225 616 205.5 604.5Q186 593 186 580Q186 560 195 533L322 197Q332 169 340 169Q346 169 358 197L499 547Q507 563 507 579Q507 600 440 620Q407 629 407.0 640.0Q407 651 436 651Q448 651 481.0 650.5Q514 650 535.0 650.0Q556 650 597.0 651.5Q638 653 649 653Z" fill="#332E2B" transform="translate(775.292 112.000) scale(0.092000 -0.092000)"/>
    <path d="M130 550Q130 585 115.5 600.0Q101 615 63 622Q30 628 30 642Q30 653 59 653Q87 653 120.5 651.5Q154 650 176 650Q196 650 226.5 651.5Q257 653 285 653Q314 653 314 642Q314 628 281 622Q242 615 226.0 599.5Q210 584 210 550V98Q210 64 229.5 47.5Q249 31 289 24Q322 18 322 6Q322 -5 293 -5Q265 -5 231.5 -2.5Q198 0 176 0Q152 0 114.0 -2.5Q76 -5 48 -5Q19 -5 19 6Q19 18 52 24Q92 31 111.0 47.5Q130 64 130 98Z" fill="#332E2B" transform="translate(845.116 112.000) scale(0.092000 -0.092000)"/>
    <path d="M376 102Q376 38 455 24Q488 18 488 6Q488 -5 459 -5Q431 -5 397.5 -2.5Q364 0 342 0Q318 0 280.0 -2.5Q242 -5 214 -5Q185 -5 185 6Q185 18 218 24Q257 31 276.5 49.0Q296 67 296 102V557Q296 597 278 600Q259 604 204 604H157Q131 604 108.0 594.0Q85 584 75 565Q69 553 56.5 540.0Q44 527 34 527Q27 527 27 540Q27 550 32 560Q54 606 63 671Q66 694 80 694Q88 694 105 662Q116 642 175 642H556Q594 642 614 656Q621 661 631.5 671.0Q642 681 649.5 686.5Q657 692 664.0 692.0Q671 692 671 669Q671 667 670.5 664.0Q670 661 670 660Q654 594 654 561V549Q654 539 649.5 528.0Q645 517 638 517Q627 517 619 558Q611 604 527 604H432Q394 604 385.0 596.5Q376 589 376 558Z" fill="#332E2B" transform="translate(884.396 112.000) scale(0.092000 -0.092000)"/>
    <path d="M210 102Q210 65 225.5 50.0Q241 35 276 35H380Q433 35 456 53Q475 68 498 116Q504 127 512 126Q525 124 525 115Q525 75 508 12Q504 -5 494 -5Q426 -5 320.0 -2.0Q214 1 167 1Q146 1 113.0 -2.0Q80 -5 52 -5Q23 -5 23 6Q23 18 56 24Q95 31 112.5 47.5Q130 64 130 99V549Q130 584 115.5 599.5Q101 615 63 622Q30 628 30 642Q30 653 59 653Q97 653 149.5 651.5Q202 650 236 650Q276 650 329.0 651.0Q382 652 419.0 652.5Q456 653 458 653Q475 653 476 644Q491 563 491 541Q491 526 477 526Q469 526 466 536Q451 583 444 591Q420 618 377 618H246Q236 618 223.0 608.5Q210 599 210 586V374Q210 365 215.5 358.5Q221 352 228 352H324Q368 352 385 391Q387 395 393.5 401.5Q400 408 403 408Q407 408 411.5 403.5Q416 399 416 392Q416 388 414.5 367.0Q413 346 413 337Q413 326 414.0 299.0Q415 272 415 269Q415 252 406 252Q390 252 383 275Q368 320 337 320H244Q225 320 217.5 315.0Q210 310 210 294Z" fill="#332E2B" transform="translate(954.036 112.000) scale(0.092000 -0.092000)"/>
  </g>
  <line x1="264.1" y1="174" x2="414.1" y2="174" stroke="#72393F" stroke-width="2" stroke-linecap="round" vector-effect="non-scaling-stroke"/>
  <line x1="785.9" y1="174" x2="935.9" y2="174" stroke="#72393F" stroke-width="2" stroke-linecap="round" vector-effect="non-scaling-stroke"/>
  <g id="studio" shape-rendering="geometricPrecision">
    <path d="M223 17Q278 17 308.0 48.0Q338 79 338 132Q338 216 186 318Q125 359 92.0 400.5Q59 442 59 497Q59 565 116.0 614.5Q173 664 260 664Q288 664 315.5 659.0Q343 654 359.5 649.0Q376 644 379 644Q391 644 396 621Q397 619 399.0 605.5Q401 592 403.0 571.5Q405 551 405 537Q405 512 398 512Q369 512 363 540Q356 583 325.0 607.0Q294 631 251 631Q203 631 169.5 601.5Q136 572 136 523Q136 500 148.0 478.5Q160 457 185.5 436.0Q211 415 225.0 404.5Q239 394 269 375Q422 276 422 160Q422 91 370.0 37.5Q318 -16 214 -16Q131 -16 80 8Q63 16 59 25Q41 63 41 140Q41 148 47.5 158.5Q54 169 62 169Q71 169 92 103Q106 60 141.0 38.5Q176 17 223 17Z" fill="#332E2B" transform="translate(474.090 187.000) scale(0.034000 -0.034000)"/>
    <path d="M376 102Q376 38 455 24Q488 18 488 6Q488 -5 459 -5Q431 -5 397.5 -2.5Q364 0 342 0Q318 0 280.0 -2.5Q242 -5 214 -5Q185 -5 185 6Q185 18 218 24Q257 31 276.5 49.0Q296 67 296 102V557Q296 597 278 600Q259 604 204 604H157Q131 604 108.0 594.0Q85 584 75 565Q69 553 56.5 540.0Q44 527 34 527Q27 527 27 540Q27 550 32 560Q54 606 63 671Q66 694 80 694Q88 694 105 662Q116 642 175 642H556Q594 642 614 656Q621 661 631.5 671.0Q642 681 649.5 686.5Q657 692 664.0 692.0Q671 692 671 669Q671 667 670.5 664.0Q670 661 670 660Q654 594 654 561V549Q654 539 649.5 528.0Q645 517 638 517Q627 517 619 558Q611 604 527 604H432Q394 604 385.0 596.5Q376 589 376 558Z" fill="#332E2B" transform="translate(514.900 187.000) scale(0.034000 -0.034000)"/>
    <path d="M645 547Q644 536 635 250Q631 134 557.0 60.0Q483 -14 372 -14Q241 -14 172.0 54.0Q103 122 103 240V547Q103 607 57 620Q24 629 24 642Q24 653 53 653Q67 653 98.5 651.5Q130 650 149 650Q166 650 193.0 651.0Q220 652 229 652Q258 652 258 641Q258 632 225 621Q211 617 197.0 596.5Q183 576 183 549V268Q183 152 240.0 94.0Q297 36 393 36Q493 36 542.5 105.5Q592 175 592 296Q592 357 588 511Q586 609 547 620Q514 629 514.0 640.0Q514 651 543 651Q558 651 581.0 650.5Q604 650 618 650Q635 650 662.0 651.5Q689 653 699 653Q728 653 728 642Q728 629 695 622Q648 613 645 547Z" fill="#332E2B" transform="translate(562.680 187.000) scale(0.034000 -0.034000)"/>
    <path d="M209 121Q209 92 221.0 72.5Q233 53 256.5 44.0Q280 35 303.5 31.5Q327 28 359 28Q476 28 550.0 111.0Q624 194 624 325Q624 462 539.5 545.0Q455 628 345 628Q313 628 297.0 627.5Q281 627 260.5 624.0Q240 621 231.0 614.5Q222 608 215.5 596.5Q209 585 209 567ZM371 -7Q368 -7 289.0 -3.5Q210 0 163 0Q145 0 115.5 -2.5Q86 -5 58 -5Q29 -5 29 6Q29 18 62 24Q100 31 114.5 47.0Q129 63 129 99V549Q129 584 114.5 599.5Q100 615 62 622Q29 628 29 642Q29 653 58.0 653.0Q87 653 115.0 652.0Q143 651 162 651H169Q192 651 260.0 655.0Q328 659 340 659Q533 659 626.0 571.0Q719 483 719 342Q719 198 616.5 95.5Q514 -7 371 -7Z" fill="#332E2B" transform="translate(612.772 187.000) scale(0.034000 -0.034000)"/>
    <path d="M130 550Q130 585 115.5 600.0Q101 615 63 622Q30 628 30 642Q30 653 59 653Q87 653 120.5 651.5Q154 650 176 650Q196 650 226.5 651.5Q257 653 285 653Q314 653 314 642Q314 628 281 622Q242 615 226.0 599.5Q210 584 210 550V98Q210 64 229.5 47.5Q249 31 289 24Q322 18 322 6Q322 -5 293 -5Q265 -5 231.5 -2.5Q198 0 176 0Q152 0 114.0 -2.5Q76 -5 48 -5Q19 -5 19 6Q19 18 52 24Q92 31 111.0 47.5Q130 64 130 98Z" fill="#332E2B" transform="translate(663.408 187.000) scale(0.034000 -0.034000)"/>
    <path d="M45 320Q45 413 83.5 489.5Q122 566 202.0 615.0Q282 664 390 664Q524 664 621.0 571.5Q718 479 718 335Q718 267 696.0 204.5Q674 142 632.5 93.0Q591 44 526.0 15.0Q461 -14 382 -14Q247 -14 146.0 83.0Q45 180 45 320ZM375 625Q269 625 205.5 543.0Q142 461 142 350Q142 218 214.5 121.5Q287 25 395 25Q505 25 563.0 99.5Q621 174 621 305Q621 451 557.0 538.0Q493 625 375 625Z" fill="#332E2B" transform="translate(699.968 187.000) scale(0.034000 -0.034000)"/>
  </g>
</svg>